<svg xmlns="http://www.w3.org/2000/svg" viewBox="0 0 963 428" fill="#9fe737" role="img" aria-label="Zaphyl">
  <path d="M884.37 89.99c-7.61-14.13-17.46-26.95-29.1-38.03l-78.72 62.56c39.83-2.99 76.6-11.65 107.81-24.53Zm-120.34 25.28 69.95-80.29c-14.16-9.4-30-16.61-46.99-21.12l-31.38 101.7c2.82-.06 5.63-.16 8.42-.29m-18.55.42c1.3 0 2.6 0 3.89-.02l18.54-105.64c-7.33-1.02-14.82-1.55-22.44-1.55-8.32 0-16.48.63-24.45 1.84l21.38 105.36c1.02 0 2.04.01 3.07.01Zm-9.98-.13-32.27-101.5a158.3 158.3 0 0 0-47.14 21.5l70.89 79.71c2.82.13 5.66.22 8.52.28Zm-100-63.42c-11.56 11.04-21.34 23.8-28.91 37.85 31.18 12.87 67.89 21.53 107.67 24.52zM492.78 168.92c-12.42-8.16-26.27-12.42-42.24-12.42-11.71 0-22.01 2.13-30.88 6.75-8.87 4.61-16.68 11.36-22.72 19.88v-21.3h-51.47v49.18c-4.65-8.15-10.88-16.14-18.72-23.98-16.32-16.32-32.88-25.35-50.45-27.36s-32.88 1.76-46.44 10.79l35.89 35.89c3.51-2.01 8.03-2.01 13.55-1.01 5.27 1.26 10.79 4.77 16.31 10.29 6.28 6.28 9.79 12.8 10.54 19.58.5 7.03-2.51 13.55-9.04 20.08l-4.52 4.52-23.84-23.85c-17.32-17.32-34.89-27.36-52.21-29.62s-32.88 3.26-46.69 17.07c-12.55 12.55-18.57 26.61-17.82 42.42.39 12.37 4.66 23.85 12.9 34.78H80.16l86.61-94.78v-44.02H8.83v46.15h86.61L8.83 302.74v44.02h159.74V305.1c1.5 1.73 3.11 3.46 4.82 5.17 7.03 7.03 15.56 12.55 25.35 16.32 9.54 4.02 19.58 4.52 30.12 2.01l-14.81 14.81 34.64 34.64 81.32-81.32c6.32-6.32 11.47-12.67 15.45-19.04v141.85h53.6V327.6c6.04 7.81 13.49 13.84 22.36 18.1 8.52 4.26 18.1 6.39 29.11 6.39 15.97 0 29.82-4.26 42.24-12.42 12.07-8.16 21.65-19.88 28.75-34.43 6.74-14.55 10.29-31.24 10.29-50.76s-3.55-36.21-10.29-51.11c-7.1-14.55-16.68-26.27-28.75-34.43Zm-233.3 124.02c-4.77 4.77-10.04 7.53-15.56 8.53-5.77.75-11.3.25-16.82-1.76s-10.29-5.27-14.05-9.04c-5.27-5.27-8.53-11.04-9.54-17.07-1-6.02.75-11.3 5.52-16.06 4.77-4.77 10.29-6.78 16.82-5.77 6.02 1 12.3 4.77 19.08 11.55l22.09 22.09-7.53 7.53Zm206.67-1.56c-7.46 8.88-17.39 13.49-29.11 13.49s-21.65-4.61-29.11-13.49c-7.45-8.87-11.36-21.3-11.36-36.92s3.9-28.04 11.36-37.27c7.45-8.88 17.39-13.49 29.11-13.49s21.65 4.61 29.11 13.49c7.45 9.23 11 21.65 11 37.27s-3.55 28.04-11 36.92m176.78-134.89c-21.65 0-39.05 7.81-52.18 23.78V89.4h-53.96v257.35h53.96V238.84c0-10.29 2.84-18.81 8.87-25.2 6.03-6.04 13.49-9.23 23.07-9.23 10.29 0 18.1 3.19 23.07 9.59 4.97 6.39 7.45 14.91 7.45 25.56v107.2h53.95v-114.3c0-23.07-5.68-41.53-17.39-55.38-11.71-13.84-27.33-20.59-46.86-20.59Z"/>
  <path d="m795.3 283.22-40.46-121.4h-61.41l72.41 184.94-30.17 72.76h57.51l99.74-257.7h-57.5zM900.21 89.4h53.96v257.35h-53.96z"/>
</svg>
